# xmcd CD database file
# Copyright (C) 1995-1998 Ti Kan
#
# Track frame offsets:
#	150
#	11377
#	25272
#	38860
#	55345
#	66922
#	85395
#	99332
#	115142
#	136100
#	151145
#	165195
#
# Disc length: 2425 seconds
#
# Revision: 1
# Processed by: cddbd v1.4b41PL1 Copyright (c) Steve Scherf et al.
# Submitted via: CDex 1.30
#
DISCID=8809770c
DTITLE=Americas Country - Todays Country
DYEAR=2001
DGENRE=Country
TTITLE0=IF THE GOOD DIE YOUNG: TRACY LAWRENCE
TTITLE1=I'M THAT KIND OF GIRL: PATTY LOVELESS
TTITLE2=LOOK WHAT FOLLOWED ME HOME: DAVID BALL
TTITLE3=BEER AND BONES: JOHN MICHAEL MONTGOMERY
TTITLE4=TROUBLE ON THE LINE: SAWYER BROWN
TTITLE5=MY LOVE: LITTLE TEXAS
TTITLE6=IF I DIDN'T HAVE YOU: RANDY TRAVIS
TTITLE7=A JUKEBOX WITH A COUNTRY SONG: DOUG STONE
TTITLE8=ON THE ROAD: LEE ROY PARNELL
TTITLE9=WILD MAN: RICKY VAN SHELTON
TTITLE10=WHAT A WOMAN WANTS: LARI WHITE
TTITLE11=DADDY NEVER WAS A CADILLAC KIND: CONFEDERATE RAILROAD
EXTD=YEAR: 2001  ID3G:   2
EXTT0=
EXTT1=
EXTT2=
EXTT3=
EXTT4=
EXTT5=
EXTT6=
EXTT7=
EXTT8=
EXTT9=
EXTT10=
EXTT11=
PLAYORDER=
